<?xml version="1.0" encoding="UTF-8" standalone="no"?>
<!DOCTYPE svg PUBLIC "-//W3C//DTD SVG 1.1//EN"
 "http://www.w3.org/Graphics/SVG/1.1/DTD/svg11.dtd">
<!-- Generated by graphviz version 2.47.0 (20210316.0004)
 -->
<!-- Title: dependencies Pages: 1 -->
<svg width="1514pt" height="284pt"
 viewBox="0.00 0.00 1514.00 284.00" xmlns="http://www.w3.org/2000/svg" xmlns:xlink="http://www.w3.org/1999/xlink">
<g id="graph0" class="graph" transform="scale(1 1) rotate(0) translate(4 280)">
<title>dependencies</title>
<polygon fill="white" stroke="transparent" points="-4,4 -4,-280 1510,-280 1510,4 -4,4"/>
<text text-anchor="start" x="732.01" y="-42.4" font-family="sans-serif" font-weight="bold" font-size="14.00">Legend</text>
<polygon fill="#ffffb3" stroke="transparent" points="519,-10 519,-30 539,-30 539,-10 519,-10"/>
<text text-anchor="start" x="542.63" y="-15.4" font-family="sans-serif" font-size="14.00"> &#160;Declarations</text>
<polygon fill="#8dd3c7" stroke="transparent" points="632,-10 632,-30 652,-30 652,-10 632,-10"/>
<text text-anchor="start" x="655.73" y="-15.4" font-family="sans-serif" font-size="14.00"> &#160;Module</text>
<polygon fill="#80b1d3" stroke="transparent" points="718,-10 718,-30 738,-30 738,-10 718,-10"/>
<text text-anchor="start" x="741.78" y="-15.4" font-family="sans-serif" font-size="14.00"> &#160;Bootstrap</text>
<polygon fill="#fdb462" stroke="transparent" points="815,-10 815,-30 835,-30 835,-10 815,-10"/>
<text text-anchor="start" x="838.67" y="-15.4" font-family="sans-serif" font-size="14.00"> &#160;Providers</text>
<polygon fill="#fb8072" stroke="transparent" points="911,-10 911,-30 931,-30 931,-10 911,-10"/>
<text text-anchor="start" x="934.73" y="-15.4" font-family="sans-serif" font-size="14.00"> &#160;Exports</text>
<g id="clust1" class="cluster">
<title>cluster_UciModule</title>
<polygon fill="none" stroke="black" stroke-dasharray="1,5" points="8,-70 8,-268 1498,-268 1498,-70 8,-70"/>
</g>
<g id="clust2" class="cluster">
<title>cluster_UciModule_declarations</title>
<polygon fill="none" stroke="black" points="1342,-78 1342,-130 1490,-130 1490,-78 1342,-78"/>
</g>
<g id="clust5" class="cluster">
<title>cluster_UciModule_exports</title>
<polygon fill="none" stroke="black" points="873,-208 873,-260 1025,-260 1025,-208 873,-208"/>
</g>
<g id="clust4" class="cluster">
<title>cluster_UciModule_imports</title>
<polygon fill="none" stroke="black" points="1045,-78 1045,-130 1334,-130 1334,-78 1045,-78"/>
</g>
<g id="clust7" class="cluster">
<title>cluster_UciModule_providers</title>
<polygon fill="none" stroke="black" points="16,-78 16,-130 1037,-130 1037,-78 16,-78"/>
</g>
<!-- LibEntryComponent -->
<g id="node1" class="node">
<title>LibEntryComponent</title>
<polygon fill="#ffffb3" stroke="black" points="1481.88,-122 1350.12,-122 1350.12,-86 1481.88,-86 1481.88,-122"/>
<text text-anchor="middle" x="1416" y="-99.8" font-family="Times,serif" font-size="14.00">LibEntryComponent</text>
</g>
<!-- UciModule -->
<g id="node2" class="node">
<title>UciModule</title>
<polygon fill="#8dd3c7" stroke="black" points="988.76,-187 985.76,-191 964.76,-191 961.76,-187 909.24,-187 909.24,-151 988.76,-151 988.76,-187"/>
<text text-anchor="middle" x="949" y="-164.8" font-family="Times,serif" font-size="14.00">UciModule</text>
</g>
<!-- LibEntryComponent&#45;&gt;UciModule -->
<g id="edge1" class="edge">
<title>LibEntryComponent&#45;&gt;UciModule</title>
<path fill="none" stroke="black" d="M1416,-122.29C1416,-144.21 1416,-178 1416,-178 1416,-178 998.82,-178 998.82,-178"/>
<polygon fill="black" stroke="black" points="998.82,-174.5 988.82,-178 998.82,-181.5 998.82,-174.5"/>
</g>
<!-- LibEntryComponent  -->
<g id="node5" class="node">
<title>LibEntryComponent </title>
<polygon fill="#fb8072" stroke="black" points="1016.88,-252 881.12,-252 881.12,-216 1016.88,-216 1016.88,-252"/>
<text text-anchor="middle" x="949" y="-229.8" font-family="Times,serif" font-size="14.00">LibEntryComponent </text>
</g>
<!-- UciModule&#45;&gt;LibEntryComponent  -->
<g id="edge4" class="edge">
<title>UciModule&#45;&gt;LibEntryComponent </title>
<path fill="none" stroke="black" stroke-dasharray="5,2" d="M949,-187.11C949,-187.11 949,-205.99 949,-205.99"/>
<polygon fill="black" stroke="black" points="945.5,-205.99 949,-215.99 952.5,-205.99 945.5,-205.99"/>
</g>
<!-- ComponentsModule -->
<g id="node3" class="node">
<title>ComponentsModule</title>
<polygon fill="#8dd3c7" stroke="black" points="1326.33,-122 1323.33,-126 1302.33,-126 1299.33,-122 1195.67,-122 1195.67,-86 1326.33,-86 1326.33,-122"/>
<text text-anchor="middle" x="1261" y="-99.8" font-family="Times,serif" font-size="14.00">ComponentsModule</text>
</g>
<!-- ComponentsModule&#45;&gt;UciModule -->
<g id="edge2" class="edge">
<title>ComponentsModule&#45;&gt;UciModule</title>
<path fill="none" stroke="black" d="M1261,-122.11C1261,-141.34 1261,-169 1261,-169 1261,-169 998.83,-169 998.83,-169"/>
<polygon fill="black" stroke="black" points="998.83,-165.5 988.83,-169 998.83,-172.5 998.83,-165.5"/>
</g>
<!-- UciRoutingModule -->
<g id="node4" class="node">
<title>UciRoutingModule</title>
<polygon fill="#8dd3c7" stroke="black" points="1177.38,-122 1174.38,-126 1153.38,-126 1150.38,-122 1052.62,-122 1052.62,-86 1177.38,-86 1177.38,-122"/>
<text text-anchor="middle" x="1115" y="-99.8" font-family="Times,serif" font-size="14.00">UciRoutingModule</text>
</g>
<!-- UciRoutingModule&#45;&gt;UciModule -->
<g id="edge3" class="edge">
<title>UciRoutingModule&#45;&gt;UciModule</title>
<path fill="none" stroke="black" d="M1115,-122.03C1115,-138.4 1115,-160 1115,-160 1115,-160 999.18,-160 999.18,-160"/>
<polygon fill="black" stroke="black" points="999.18,-156.5 989.18,-160 999.18,-163.5 999.18,-156.5"/>
</g>
<!-- UciEventsService -->
<g id="node6" class="node">
<title>UciEventsService</title>
<ellipse fill="#fdb462" stroke="black" cx="949" cy="-104" rx="80.43" ry="18"/>
<text text-anchor="middle" x="949" y="-99.8" font-family="Times,serif" font-size="14.00">UciEventsService</text>
</g>
<!-- UciEventsService&#45;&gt;UciModule -->
<g id="edge5" class="edge">
<title>UciEventsService&#45;&gt;UciModule</title>
<path fill="none" stroke="black" d="M949,-122.11C949,-122.11 949,-140.99 949,-140.99"/>
<polygon fill="black" stroke="black" points="945.5,-140.99 949,-150.99 952.5,-140.99 945.5,-140.99"/>
</g>
<!-- TelemetryUtilsService -->
<g id="node7" class="node">
<title>TelemetryUtilsService</title>
<ellipse fill="#fdb462" stroke="black" cx="752" cy="-104" rx="98.4" ry="18"/>
<text text-anchor="middle" x="752" y="-99.8" font-family="Times,serif" font-size="14.00">TelemetryUtilsService</text>
</g>
<!-- TelemetryUtilsService&#45;&gt;UciModule -->
<g id="edge6" class="edge">
<title>TelemetryUtilsService&#45;&gt;UciModule</title>
<path fill="none" stroke="black" d="M752,-122.03C752,-138.4 752,-160 752,-160 752,-160 899.13,-160 899.13,-160"/>
<polygon fill="black" stroke="black" points="899.13,-163.5 909.13,-160 899.13,-156.5 899.13,-163.5"/>
</g>
<!-- ToasterService -->
<g id="node8" class="node">
<title>ToasterService</title>
<ellipse fill="#fdb462" stroke="black" cx="567" cy="-104" rx="68.89" ry="18"/>
<text text-anchor="middle" x="567" y="-99.8" font-family="Times,serif" font-size="14.00">ToasterService</text>
</g>
<!-- ToasterService&#45;&gt;UciModule -->
<g id="edge7" class="edge">
<title>ToasterService&#45;&gt;UciModule</title>
<path fill="none" stroke="black" d="M567,-122.11C567,-141.34 567,-169 567,-169 567,-169 899.2,-169 899.2,-169"/>
<polygon fill="black" stroke="black" points="899.2,-172.5 909.2,-169 899.2,-165.5 899.2,-172.5"/>
</g>
<!-- { provide: &#39;CsModule&#39;, useFactory: provideCsModule } -->
<g id="node9" class="node">
<title>{ provide: &#39;CsModule&#39;, useFactory: provideCsModule }</title>
<ellipse fill="#fdb462" stroke="black" cx="252" cy="-104" rx="228.35" ry="18"/>
<text text-anchor="middle" x="252" y="-99.8" font-family="Times,serif" font-size="14.00">{ provide: &#39;CsModule&#39;, useFactory: provideCsModule }</text>
</g>
<!-- { provide: &#39;CsModule&#39;, useFactory: provideCsModule }&#45;&gt;UciModule -->
<g id="edge8" class="edge">
<title>{ provide: &#39;CsModule&#39;, useFactory: provideCsModule }&#45;&gt;UciModule</title>
<path fill="none" stroke="black" d="M252,-122.29C252,-144.21 252,-178 252,-178 252,-178 899.02,-178 899.02,-178"/>
<polygon fill="black" stroke="black" points="899.02,-181.5 909.02,-178 899.02,-174.5 899.02,-181.5"/>
</g>
</g>
</svg>
