<?xml version="1.0" encoding="UTF-8" standalone="no"?>
<!DOCTYPE svg PUBLIC "-//W3C//DTD SVG 1.1//EN"
 "http://www.w3.org/Graphics/SVG/1.1/DTD/svg11.dtd">
<!-- Generated by graphviz version 2.47.0 (20210316.0004)
 -->
<!-- Title: dependencies Pages: 1 -->
<svg width="5304pt" height="284pt"
 viewBox="0.00 0.00 5304.00 284.00" xmlns="http://www.w3.org/2000/svg" xmlns:xlink="http://www.w3.org/1999/xlink">
<g id="graph0" class="graph" transform="scale(1 1) rotate(0) translate(4 280)">
<title>dependencies</title>
<polygon fill="white" stroke="transparent" points="-4,4 -4,-280 5300,-280 5300,4 -4,4"/>
<text text-anchor="start" x="2627.01" y="-42.4" font-family="sans-serif" font-weight="bold" font-size="14.00">Legend</text>
<polygon fill="#ffffb3" stroke="transparent" points="2414,-10 2414,-30 2434,-30 2434,-10 2414,-10"/>
<text text-anchor="start" x="2437.63" y="-15.4" font-family="sans-serif" font-size="14.00"> &#160;Declarations</text>
<polygon fill="#8dd3c7" stroke="transparent" points="2527,-10 2527,-30 2547,-30 2547,-10 2527,-10"/>
<text text-anchor="start" x="2550.73" y="-15.4" font-family="sans-serif" font-size="14.00"> &#160;Module</text>
<polygon fill="#80b1d3" stroke="transparent" points="2613,-10 2613,-30 2633,-30 2633,-10 2613,-10"/>
<text text-anchor="start" x="2636.78" y="-15.4" font-family="sans-serif" font-size="14.00"> &#160;Bootstrap</text>
<polygon fill="#fdb462" stroke="transparent" points="2710,-10 2710,-30 2730,-30 2730,-10 2710,-10"/>
<text text-anchor="start" x="2733.67" y="-15.4" font-family="sans-serif" font-size="14.00"> &#160;Providers</text>
<polygon fill="#fb8072" stroke="transparent" points="2806,-10 2806,-30 2826,-30 2826,-10 2806,-10"/>
<text text-anchor="start" x="2829.73" y="-15.4" font-family="sans-serif" font-size="14.00"> &#160;Exports</text>
<g id="clust1" class="cluster">
<title>cluster_ComponentsModule</title>
<polygon fill="none" stroke="black" stroke-dasharray="1,5" points="8,-70 8,-268 5288,-268 5288,-70 8,-70"/>
</g>
<g id="clust2" class="cluster">
<title>cluster_ComponentsModule_declarations</title>
<polygon fill="none" stroke="black" points="3373,-78 3373,-130 5280,-130 5280,-78 3373,-78"/>
</g>
<g id="clust14" class="cluster">
<title>cluster_ComponentsModule_exports</title>
<polygon fill="none" stroke="black" points="2342,-208 2342,-260 2498,-260 2498,-208 2342,-208"/>
</g>
<g id="clust13" class="cluster">
<title>cluster_ComponentsModule_imports</title>
<polygon fill="none" stroke="black" points="494,-78 494,-130 3365,-130 3365,-78 494,-78"/>
</g>
<g id="clust16" class="cluster">
<title>cluster_ComponentsModule_providers</title>
<polygon fill="none" stroke="black" points="16,-78 16,-130 486,-130 486,-78 16,-78"/>
</g>
<!-- SidePanelComponent -->
<g id="node1" class="node">
<title>SidePanelComponent</title>
<polygon fill="#ffffb3" stroke="black" points="5271.82,-122 5134.18,-122 5134.18,-86 5271.82,-86 5271.82,-122"/>
<text text-anchor="middle" x="5203" y="-99.8" font-family="Times,serif" font-size="14.00">SidePanelComponent</text>
</g>
<!-- ComponentsModule -->
<g id="node11" class="node">
<title>ComponentsModule</title>
<polygon fill="#8dd3c7" stroke="black" points="2485.33,-187 2482.33,-191 2461.33,-191 2458.33,-187 2354.67,-187 2354.67,-151 2485.33,-151 2485.33,-187"/>
<text text-anchor="middle" x="2420" y="-164.8" font-family="Times,serif" font-size="14.00">ComponentsModule</text>
</g>
<!-- SidePanelComponent&#45;&gt;ComponentsModule -->
<g id="edge1" class="edge">
<title>SidePanelComponent&#45;&gt;ComponentsModule</title>
<path fill="none" stroke="black" d="M5203,-122.38C5203,-146.28 5203,-185 5203,-185 5203,-185 2495.37,-185 2495.37,-185"/>
<polygon fill="black" stroke="black" points="2495.37,-181.5 2485.37,-185 2495.37,-188.5 2495.37,-181.5"/>
</g>
<!-- ConversationListComponent -->
<g id="node2" class="node">
<title>ConversationListComponent</title>
<polygon fill="#ffffb3" stroke="black" points="5115.76,-122 4938.24,-122 4938.24,-86 5115.76,-86 5115.76,-122"/>
<text text-anchor="middle" x="5027" y="-99.8" font-family="Times,serif" font-size="14.00">ConversationListComponent</text>
</g>
<!-- ConversationListComponent&#45;&gt;ComponentsModule -->
<g id="edge2" class="edge">
<title>ConversationListComponent&#45;&gt;ComponentsModule</title>
<path fill="none" stroke="black" d="M5027,-122.32C5027,-145.66 5027,-183 5027,-183 5027,-183 2495.42,-183 2495.42,-183"/>
<polygon fill="black" stroke="black" points="2495.42,-179.5 2485.42,-183 2495.42,-186.5 2495.42,-179.5"/>
</g>
<!-- ConversationAddComponent -->
<g id="node3" class="node">
<title>ConversationAddComponent</title>
<polygon fill="#ffffb3" stroke="black" points="4920.09,-122 4739.91,-122 4739.91,-86 4920.09,-86 4920.09,-122"/>
<text text-anchor="middle" x="4830" y="-99.8" font-family="Times,serif" font-size="14.00">ConversationAddComponent</text>
</g>
<!-- ConversationAddComponent&#45;&gt;ComponentsModule -->
<g id="edge3" class="edge">
<title>ConversationAddComponent&#45;&gt;ComponentsModule</title>
<path fill="none" stroke="black" d="M4830,-122.25C4830,-145.02 4830,-181 4830,-181 4830,-181 2495.4,-181 2495.4,-181"/>
<polygon fill="black" stroke="black" points="2495.4,-177.5 2485.4,-181 2495.4,-184.5 2495.4,-177.5"/>
</g>
<!-- UserSegmentListComponent -->
<g id="node4" class="node">
<title>UserSegmentListComponent</title>
<polygon fill="#ffffb3" stroke="black" points="4722.03,-122 4543.97,-122 4543.97,-86 4722.03,-86 4722.03,-122"/>
<text text-anchor="middle" x="4633" y="-99.8" font-family="Times,serif" font-size="14.00">UserSegmentListComponent</text>
</g>
<!-- UserSegmentListComponent&#45;&gt;ComponentsModule -->
<g id="edge4" class="edge">
<title>UserSegmentListComponent&#45;&gt;ComponentsModule</title>
<path fill="none" stroke="black" d="M4633,-122.16C4633,-144.35 4633,-179 4633,-179 4633,-179 2495.33,-179 2495.33,-179"/>
<polygon fill="black" stroke="black" points="2495.33,-175.5 2485.33,-179 2495.33,-182.5 2495.33,-175.5"/>
</g>
<!-- UserSegmentAddComponent -->
<g id="node5" class="node">
<title>UserSegmentAddComponent</title>
<polygon fill="#ffffb3" stroke="black" points="4525.36,-122 4344.64,-122 4344.64,-86 4525.36,-86 4525.36,-122"/>
<text text-anchor="middle" x="4435" y="-99.8" font-family="Times,serif" font-size="14.00">UserSegmentAddComponent</text>
</g>
<!-- UserSegmentAddComponent&#45;&gt;ComponentsModule -->
<g id="edge5" class="edge">
<title>UserSegmentAddComponent&#45;&gt;ComponentsModule</title>
<path fill="none" stroke="black" d="M4435,-122.04C4435,-143.66 4435,-177 4435,-177 4435,-177 2495.33,-177 2495.33,-177"/>
<polygon fill="black" stroke="black" points="2495.33,-173.5 2485.33,-177 2495.33,-180.5 2495.33,-173.5"/>
</g>
<!-- TermsConditionsComponent -->
<g id="node6" class="node">
<title>TermsConditionsComponent</title>
<polygon fill="#ffffb3" stroke="black" points="4326.05,-122 4147.95,-122 4147.95,-86 4326.05,-86 4326.05,-122"/>
<text text-anchor="middle" x="4237" y="-99.8" font-family="Times,serif" font-size="14.00">TermsConditionsComponent</text>
</g>
<!-- TermsConditionsComponent&#45;&gt;ComponentsModule -->
<g id="edge6" class="edge">
<title>TermsConditionsComponent&#45;&gt;ComponentsModule</title>
<path fill="none" stroke="black" d="M4237,-122.28C4237,-143.32 4237,-175 4237,-175 4237,-175 2495.2,-175 2495.2,-175"/>
<polygon fill="black" stroke="black" points="2495.2,-171.5 2485.2,-175 2495.2,-178.5 2495.2,-171.5"/>
</g>
<!-- TermsConditionConfirmComponent -->
<g id="node7" class="node">
<title>TermsConditionConfirmComponent</title>
<polygon fill="#ffffb3" stroke="black" points="4129.04,-122 3908.96,-122 3908.96,-86 4129.04,-86 4129.04,-122"/>
<text text-anchor="middle" x="4019" y="-99.8" font-family="Times,serif" font-size="14.00">TermsConditionConfirmComponent</text>
</g>
<!-- TermsConditionConfirmComponent&#45;&gt;ComponentsModule -->
<g id="edge7" class="edge">
<title>TermsConditionConfirmComponent&#45;&gt;ComponentsModule</title>
<path fill="none" stroke="black" d="M4019,-122.13C4019,-142.57 4019,-173 4019,-173 4019,-173 2495.41,-173 2495.41,-173"/>
<polygon fill="black" stroke="black" points="2495.41,-169.5 2485.41,-173 2495.41,-176.5 2495.41,-169.5"/>
</g>
<!-- ConversationSuccessComponent -->
<g id="node8" class="node">
<title>ConversationSuccessComponent</title>
<polygon fill="#ffffb3" stroke="black" points="3891.3,-122 3690.7,-122 3690.7,-86 3891.3,-86 3891.3,-122"/>
<text text-anchor="middle" x="3791" y="-99.8" font-family="Times,serif" font-size="14.00">ConversationSuccessComponent</text>
</g>
<!-- ConversationSuccessComponent&#45;&gt;ComponentsModule -->
<g id="edge8" class="edge">
<title>ConversationSuccessComponent&#45;&gt;ComponentsModule</title>
<path fill="none" stroke="black" d="M3791,-122.31C3791,-142.15 3791,-171 3791,-171 3791,-171 2495.2,-171 2495.2,-171"/>
<polygon fill="black" stroke="black" points="2495.2,-167.5 2485.2,-171 2495.2,-174.5 2495.2,-167.5"/>
</g>
<!-- AddLogicComponent -->
<g id="node9" class="node">
<title>AddLogicComponent</title>
<polygon fill="#ffffb3" stroke="black" points="3673.1,-122 3534.9,-122 3534.9,-86 3673.1,-86 3673.1,-122"/>
<text text-anchor="middle" x="3604" y="-99.8" font-family="Times,serif" font-size="14.00">AddLogicComponent</text>
</g>
<!-- AddLogicComponent&#45;&gt;ComponentsModule -->
<g id="edge9" class="edge">
<title>AddLogicComponent&#45;&gt;ComponentsModule</title>
<path fill="none" stroke="black" d="M3604,-122.17C3604,-141.09 3604,-168 3604,-168 3604,-168 2495.34,-168 2495.34,-168"/>
<polygon fill="black" stroke="black" points="2495.34,-164.5 2485.34,-168 2495.34,-171.5 2495.34,-164.5"/>
</g>
<!-- LogicListComponent -->
<g id="node10" class="node">
<title>LogicListComponent</title>
<polygon fill="#ffffb3" stroke="black" points="3516.77,-122 3381.23,-122 3381.23,-86 3516.77,-86 3516.77,-122"/>
<text text-anchor="middle" x="3449" y="-99.8" font-family="Times,serif" font-size="14.00">LogicListComponent</text>
</g>
<!-- LogicListComponent&#45;&gt;ComponentsModule -->
<g id="edge10" class="edge">
<title>LogicListComponent&#45;&gt;ComponentsModule</title>
<path fill="none" stroke="black" d="M3449,-122.27C3449,-140.56 3449,-166 3449,-166 3449,-166 2495.54,-166 2495.54,-166"/>
<polygon fill="black" stroke="black" points="2495.54,-162.5 2485.54,-166 2495.54,-169.5 2495.54,-162.5"/>
</g>
<!-- SidePanelComponent  -->
<g id="node32" class="node">
<title>SidePanelComponent </title>
<polygon fill="#fb8072" stroke="black" points="2490.32,-252 2349.68,-252 2349.68,-216 2490.32,-216 2490.32,-252"/>
<text text-anchor="middle" x="2420" y="-229.8" font-family="Times,serif" font-size="14.00">SidePanelComponent </text>
</g>
<!-- ComponentsModule&#45;&gt;SidePanelComponent  -->
<g id="edge31" class="edge">
<title>ComponentsModule&#45;&gt;SidePanelComponent </title>
<path fill="none" stroke="black" stroke-dasharray="5,2" d="M2420,-187.11C2420,-187.11 2420,-205.99 2420,-205.99"/>
<polygon fill="black" stroke="black" points="2416.5,-205.99 2420,-215.99 2423.5,-205.99 2416.5,-205.99"/>
</g>
<!-- CommonModule -->
<g id="node12" class="node">
<title>CommonModule</title>
<polygon fill="#8dd3c7" stroke="black" points="3356.67,-122 3353.67,-126 3332.67,-126 3329.67,-122 3245.33,-122 3245.33,-86 3356.67,-86 3356.67,-122"/>
<text text-anchor="middle" x="3301" y="-99.8" font-family="Times,serif" font-size="14.00">CommonModule</text>
</g>
<!-- CommonModule&#45;&gt;ComponentsModule -->
<g id="edge11" class="edge">
<title>CommonModule&#45;&gt;ComponentsModule</title>
<path fill="none" stroke="black" d="M3301,-122C3301,-139.68 3301,-164 3301,-164 3301,-164 2495.5,-164 2495.5,-164"/>
<polygon fill="black" stroke="black" points="2495.5,-160.5 2485.5,-164 2495.5,-167.5 2495.5,-160.5"/>
</g>
<!-- HttpClientModule -->
<g id="node13" class="node">
<title>HttpClientModule</title>
<polygon fill="#8dd3c7" stroke="black" points="3227.16,-122 3224.16,-126 3203.16,-126 3200.16,-122 3108.84,-122 3108.84,-86 3227.16,-86 3227.16,-122"/>
<text text-anchor="middle" x="3168" y="-99.8" font-family="Times,serif" font-size="14.00">HttpClientModule</text>
</g>
<!-- HttpClientModule&#45;&gt;ComponentsModule -->
<g id="edge12" class="edge">
<title>HttpClientModule&#45;&gt;ComponentsModule</title>
<path fill="none" stroke="black" d="M3168,-122.03C3168,-139.06 3168,-162 3168,-162 3168,-162 2495.4,-162 2495.4,-162"/>
<polygon fill="black" stroke="black" points="2495.4,-158.5 2485.4,-162 2495.4,-165.5 2495.4,-158.5"/>
</g>
<!-- FormsModule -->
<g id="node14" class="node">
<title>FormsModule</title>
<polygon fill="#8dd3c7" stroke="black" points="3090.83,-122 3087.83,-126 3066.83,-126 3063.83,-122 2995.17,-122 2995.17,-86 3090.83,-86 3090.83,-122"/>
<text text-anchor="middle" x="3043" y="-99.8" font-family="Times,serif" font-size="14.00">FormsModule</text>
</g>
<!-- FormsModule&#45;&gt;ComponentsModule -->
<g id="edge13" class="edge">
<title>FormsModule&#45;&gt;ComponentsModule</title>
<path fill="none" stroke="black" d="M3043,-122.03C3043,-138.4 3043,-160 3043,-160 3043,-160 2495.2,-160 2495.2,-160"/>
<polygon fill="black" stroke="black" points="2495.2,-156.5 2485.2,-160 2495.2,-163.5 2495.2,-156.5"/>
</g>
<!-- ReactiveFormsModule -->
<g id="node15" class="node">
<title>ReactiveFormsModule</title>
<polygon fill="#8dd3c7" stroke="black" points="2977.3,-122 2974.3,-126 2953.3,-126 2950.3,-122 2832.7,-122 2832.7,-86 2977.3,-86 2977.3,-122"/>
<text text-anchor="middle" x="2905" y="-99.8" font-family="Times,serif" font-size="14.00">ReactiveFormsModule</text>
</g>
<!-- ReactiveFormsModule&#45;&gt;ComponentsModule -->
<g id="edge14" class="edge">
<title>ReactiveFormsModule&#45;&gt;ComponentsModule</title>
<path fill="none" stroke="black" d="M2905,-122.28C2905,-137.95 2905,-158 2905,-158 2905,-158 2495.41,-158 2495.41,-158"/>
<polygon fill="black" stroke="black" points="2495.41,-154.5 2485.41,-158 2495.41,-161.5 2495.41,-154.5"/>
</g>
<!-- TagInputModule -->
<g id="node16" class="node">
<title>TagInputModule</title>
<polygon fill="#8dd3c7" stroke="black" points="2814.37,-122 2811.37,-126 2790.37,-126 2787.37,-122 2703.63,-122 2703.63,-86 2814.37,-86 2814.37,-122"/>
<text text-anchor="middle" x="2759" y="-99.8" font-family="Times,serif" font-size="14.00">TagInputModule</text>
</g>
<!-- TagInputModule&#45;&gt;ComponentsModule -->
<g id="edge15" class="edge">
<title>TagInputModule&#45;&gt;ComponentsModule</title>
<path fill="none" stroke="black" d="M2759,-122.19C2759,-137.18 2759,-156 2759,-156 2759,-156 2495.36,-156 2495.36,-156"/>
<polygon fill="black" stroke="black" points="2495.36,-152.5 2485.36,-156 2495.36,-159.5 2495.36,-152.5"/>
</g>
<!-- PipesModule -->
<g id="node17" class="node">
<title>PipesModule</title>
<polygon fill="#8dd3c7" stroke="black" points="2685.88,-122 2682.88,-126 2661.88,-126 2658.88,-122 2596.12,-122 2596.12,-86 2685.88,-86 2685.88,-122"/>
<text text-anchor="middle" x="2641" y="-99.8" font-family="Times,serif" font-size="14.00">PipesModule</text>
</g>
<!-- PipesModule&#45;&gt;ComponentsModule -->
<g id="edge16" class="edge">
<title>PipesModule&#45;&gt;ComponentsModule</title>
<path fill="none" stroke="black" d="M2641,-122.05C2641,-136.37 2641,-154 2641,-154 2641,-154 2495.41,-154 2495.41,-154"/>
<polygon fill="black" stroke="black" points="2495.41,-150.5 2485.41,-154 2495.41,-157.5 2495.41,-150.5"/>
</g>
<!-- InfiniteScrollModule -->
<g id="node18" class="node">
<title>InfiniteScrollModule</title>
<polygon fill="#8dd3c7" stroke="black" points="2578.2,-122 2575.2,-126 2554.2,-126 2551.2,-122 2443.8,-122 2443.8,-86 2578.2,-86 2578.2,-122"/>
<text text-anchor="middle" x="2511" y="-99.8" font-family="Times,serif" font-size="14.00">InfiniteScrollModule</text>
</g>
<!-- InfiniteScrollModule&#45;&gt;ComponentsModule -->
<g id="edge17" class="edge">
<title>InfiniteScrollModule&#45;&gt;ComponentsModule</title>
<path fill="none" stroke="black" d="M2464.53,-122.11C2464.53,-122.11 2464.53,-140.99 2464.53,-140.99"/>
<polygon fill="black" stroke="black" points="2461.03,-140.99 2464.53,-150.99 2468.03,-140.99 2461.03,-140.99"/>
</g>
<!-- CommonFormElementsModule -->
<g id="node19" class="node">
<title>CommonFormElementsModule</title>
<polygon fill="#8dd3c7" stroke="black" points="2426.1,-122 2423.1,-126 2402.1,-126 2399.1,-122 2231.9,-122 2231.9,-86 2426.1,-86 2426.1,-122"/>
<text text-anchor="middle" x="2329" y="-99.8" font-family="Times,serif" font-size="14.00">CommonFormElementsModule</text>
</g>
<!-- CommonFormElementsModule&#45;&gt;ComponentsModule -->
<g id="edge18" class="edge">
<title>CommonFormElementsModule&#45;&gt;ComponentsModule</title>
<path fill="none" stroke="black" d="M2390.44,-122.11C2390.44,-122.11 2390.44,-140.99 2390.44,-140.99"/>
<polygon fill="black" stroke="black" points="2386.94,-140.99 2390.44,-150.99 2393.94,-140.99 2386.94,-140.99"/>
</g>
<!-- SuiModule -->
<g id="node20" class="node">
<title>SuiModule</title>
<polygon fill="#8dd3c7" stroke="black" points="2214.22,-122 2211.22,-126 2190.22,-126 2187.22,-122 2135.78,-122 2135.78,-86 2214.22,-86 2214.22,-122"/>
<text text-anchor="middle" x="2175" y="-99.8" font-family="Times,serif" font-size="14.00">SuiModule</text>
</g>
<!-- SuiModule&#45;&gt;ComponentsModule -->
<g id="edge19" class="edge">
<title>SuiModule&#45;&gt;ComponentsModule</title>
<path fill="none" stroke="black" d="M2175,-122.05C2175,-136.37 2175,-154 2175,-154 2175,-154 2344.67,-154 2344.67,-154"/>
<polygon fill="black" stroke="black" points="2344.67,-157.5 2354.67,-154 2344.67,-150.5 2344.67,-157.5"/>
</g>
<!-- MatButtonModule -->
<g id="node21" class="node">
<title>MatButtonModule</title>
<polygon fill="#8dd3c7" stroke="black" points="2118.22,-122 2115.22,-126 2094.22,-126 2091.22,-122 1997.78,-122 1997.78,-86 2118.22,-86 2118.22,-122"/>
<text text-anchor="middle" x="2058" y="-99.8" font-family="Times,serif" font-size="14.00">MatButtonModule</text>
</g>
<!-- MatButtonModule&#45;&gt;ComponentsModule -->
<g id="edge20" class="edge">
<title>MatButtonModule&#45;&gt;ComponentsModule</title>
<path fill="none" stroke="black" d="M2058,-122.19C2058,-137.18 2058,-156 2058,-156 2058,-156 2344.44,-156 2344.44,-156"/>
<polygon fill="black" stroke="black" points="2344.44,-159.5 2354.44,-156 2344.44,-152.5 2344.44,-159.5"/>
</g>
<!-- MatInputModule -->
<g id="node22" class="node">
<title>MatInputModule</title>
<polygon fill="#8dd3c7" stroke="black" points="1979.65,-122 1976.65,-126 1955.65,-126 1952.65,-122 1868.35,-122 1868.35,-86 1979.65,-86 1979.65,-122"/>
<text text-anchor="middle" x="1924" y="-99.8" font-family="Times,serif" font-size="14.00">MatInputModule</text>
</g>
<!-- MatInputModule&#45;&gt;ComponentsModule -->
<g id="edge21" class="edge">
<title>MatInputModule&#45;&gt;ComponentsModule</title>
<path fill="none" stroke="black" d="M1924,-122.28C1924,-137.95 1924,-158 1924,-158 1924,-158 2344.65,-158 2344.65,-158"/>
<polygon fill="black" stroke="black" points="2344.65,-161.5 2354.65,-158 2344.65,-154.5 2344.65,-161.5"/>
</g>
<!-- MatGridListModule -->
<g id="node23" class="node">
<title>MatGridListModule</title>
<polygon fill="#8dd3c7" stroke="black" points="1849.54,-122 1846.54,-126 1825.54,-126 1822.54,-122 1720.46,-122 1720.46,-86 1849.54,-86 1849.54,-122"/>
<text text-anchor="middle" x="1785" y="-99.8" font-family="Times,serif" font-size="14.00">MatGridListModule</text>
</g>
<!-- MatGridListModule&#45;&gt;ComponentsModule -->
<g id="edge22" class="edge">
<title>MatGridListModule&#45;&gt;ComponentsModule</title>
<path fill="none" stroke="black" d="M1785,-122.03C1785,-138.4 1785,-160 1785,-160 1785,-160 2344.73,-160 2344.73,-160"/>
<polygon fill="black" stroke="black" points="2344.73,-163.5 2354.73,-160 2344.73,-156.5 2344.73,-163.5"/>
</g>
<!-- MatCheckboxModule -->
<g id="node24" class="node">
<title>MatCheckboxModule</title>
<polygon fill="#8dd3c7" stroke="black" points="1702.37,-122 1699.37,-126 1678.37,-126 1675.37,-122 1563.63,-122 1563.63,-86 1702.37,-86 1702.37,-122"/>
<text text-anchor="middle" x="1633" y="-99.8" font-family="Times,serif" font-size="14.00">MatCheckboxModule</text>
</g>
<!-- MatCheckboxModule&#45;&gt;ComponentsModule -->
<g id="edge23" class="edge">
<title>MatCheckboxModule&#45;&gt;ComponentsModule</title>
<path fill="none" stroke="black" d="M1633,-122.03C1633,-139.06 1633,-162 1633,-162 1633,-162 2344.59,-162 2344.59,-162"/>
<polygon fill="black" stroke="black" points="2344.59,-165.5 2354.59,-162 2344.59,-158.5 2344.59,-165.5"/>
</g>
<!-- MatDialogModule -->
<g id="node25" class="node">
<title>MatDialogModule</title>
<polygon fill="#8dd3c7" stroke="black" points="1545.2,-122 1542.2,-126 1521.2,-126 1518.2,-122 1424.8,-122 1424.8,-86 1545.2,-86 1545.2,-122"/>
<text text-anchor="middle" x="1485" y="-99.8" font-family="Times,serif" font-size="14.00">MatDialogModule</text>
</g>
<!-- MatDialogModule&#45;&gt;ComponentsModule -->
<g id="edge24" class="edge">
<title>MatDialogModule&#45;&gt;ComponentsModule</title>
<path fill="none" stroke="black" d="M1485,-122C1485,-139.68 1485,-164 1485,-164 1485,-164 2344.62,-164 2344.62,-164"/>
<polygon fill="black" stroke="black" points="2344.62,-167.5 2354.62,-164 2344.62,-160.5 2344.62,-167.5"/>
</g>
<!-- MatTableModule -->
<g id="node26" class="node">
<title>MatTableModule</title>
<polygon fill="#8dd3c7" stroke="black" points="1406.97,-122 1403.97,-126 1382.97,-126 1379.97,-122 1293.03,-122 1293.03,-86 1406.97,-86 1406.97,-122"/>
<text text-anchor="middle" x="1350" y="-99.8" font-family="Times,serif" font-size="14.00">MatTableModule</text>
</g>
<!-- MatTableModule&#45;&gt;ComponentsModule -->
<g id="edge25" class="edge">
<title>MatTableModule&#45;&gt;ComponentsModule</title>
<path fill="none" stroke="black" d="M1350,-122.27C1350,-140.56 1350,-166 1350,-166 1350,-166 2344.68,-166 2344.68,-166"/>
<polygon fill="black" stroke="black" points="2344.68,-169.5 2354.68,-166 2344.68,-162.5 2344.68,-169.5"/>
</g>
<!-- MatPaginatorModule -->
<g id="node27" class="node">
<title>MatPaginatorModule</title>
<polygon fill="#8dd3c7" stroke="black" points="1274.75,-122 1271.75,-126 1250.75,-126 1247.75,-122 1139.25,-122 1139.25,-86 1274.75,-86 1274.75,-122"/>
<text text-anchor="middle" x="1207" y="-99.8" font-family="Times,serif" font-size="14.00">MatPaginatorModule</text>
</g>
<!-- MatPaginatorModule&#45;&gt;ComponentsModule -->
<g id="edge26" class="edge">
<title>MatPaginatorModule&#45;&gt;ComponentsModule</title>
<path fill="none" stroke="black" d="M1207,-122.17C1207,-141.09 1207,-168 1207,-168 1207,-168 2344.78,-168 2344.78,-168"/>
<polygon fill="black" stroke="black" points="2344.78,-171.5 2354.78,-168 2344.78,-164.5 2344.78,-171.5"/>
</g>
<!-- MatIconModule -->
<g id="node28" class="node">
<title>MatIconModule</title>
<polygon fill="#8dd3c7" stroke="black" points="1121.47,-122 1118.47,-126 1097.47,-126 1094.47,-122 1014.53,-122 1014.53,-86 1121.47,-86 1121.47,-122"/>
<text text-anchor="middle" x="1068" y="-99.8" font-family="Times,serif" font-size="14.00">MatIconModule</text>
</g>
<!-- MatIconModule&#45;&gt;ComponentsModule -->
<g id="edge27" class="edge">
<title>MatIconModule&#45;&gt;ComponentsModule</title>
<path fill="none" stroke="black" d="M1068,-122.31C1068,-142.15 1068,-171 1068,-171 1068,-171 2344.79,-171 2344.79,-171"/>
<polygon fill="black" stroke="black" points="2344.79,-174.5 2354.79,-171 2344.79,-167.5 2344.79,-174.5"/>
</g>
<!-- MatMenuModule -->
<g id="node29" class="node">
<title>MatMenuModule</title>
<polygon fill="#8dd3c7" stroke="black" points="996.26,-122 993.26,-126 972.26,-126 969.26,-122 881.74,-122 881.74,-86 996.26,-86 996.26,-122"/>
<text text-anchor="middle" x="939" y="-99.8" font-family="Times,serif" font-size="14.00">MatMenuModule</text>
</g>
<!-- MatMenuModule&#45;&gt;ComponentsModule -->
<g id="edge28" class="edge">
<title>MatMenuModule&#45;&gt;ComponentsModule</title>
<path fill="none" stroke="black" d="M939,-122.13C939,-142.57 939,-173 939,-173 939,-173 2344.45,-173 2344.45,-173"/>
<polygon fill="black" stroke="black" points="2344.45,-176.5 2354.45,-173 2344.45,-169.5 2344.45,-176.5"/>
</g>
<!-- MatDatepickerModule -->
<g id="node30" class="node">
<title>MatDatepickerModule</title>
<ellipse fill="#8dd3c7" stroke="black" cx="765" cy="-104" rx="98.98" ry="18"/>
<text text-anchor="middle" x="765" y="-99.8" font-family="Times,serif" font-size="14.00">MatDatepickerModule</text>
</g>
<!-- MatDatepickerModule&#45;&gt;ComponentsModule -->
<g id="edge29" class="edge">
<title>MatDatepickerModule&#45;&gt;ComponentsModule</title>
<path fill="none" stroke="black" d="M798,-121.19C798,-142.2 798,-175 798,-175 798,-175 2344.66,-175 2344.66,-175"/>
<polygon fill="black" stroke="black" points="2344.66,-178.5 2354.66,-175 2344.66,-171.5 2344.66,-178.5"/>
</g>
<!-- MatDatepickerModule&#45;&gt;ComponentsModule -->
<g id="edge35" class="edge">
<title>MatDatepickerModule&#45;&gt;ComponentsModule</title>
<path fill="none" stroke="black" d="M732,-121.3C732,-142.89 732,-177 732,-177 732,-177 2344.6,-177 2344.6,-177"/>
<polygon fill="black" stroke="black" points="2344.61,-180.5 2354.6,-177 2344.6,-173.5 2344.61,-180.5"/>
</g>
<!-- MatNativeDateModule -->
<g id="node31" class="node">
<title>MatNativeDateModule</title>
<polygon fill="#8dd3c7" stroke="black" points="647.84,-122 644.84,-126 623.84,-126 620.84,-122 502.16,-122 502.16,-86 647.84,-86 647.84,-122"/>
<text text-anchor="middle" x="575" y="-99.8" font-family="Times,serif" font-size="14.00">MatNativeDateModule</text>
</g>
<!-- MatNativeDateModule&#45;&gt;ComponentsModule -->
<g id="edge30" class="edge">
<title>MatNativeDateModule&#45;&gt;ComponentsModule</title>
<path fill="none" stroke="black" d="M575,-122.16C575,-144.35 575,-179 575,-179 575,-179 2344.61,-179 2344.61,-179"/>
<polygon fill="black" stroke="black" points="2344.61,-182.5 2354.61,-179 2344.61,-175.5 2344.61,-182.5"/>
</g>
<!-- UciService -->
<g id="node33" class="node">
<title>UciService</title>
<ellipse fill="#fdb462" stroke="black" cx="424" cy="-104" rx="53.87" ry="18"/>
<text text-anchor="middle" x="424" y="-99.8" font-family="Times,serif" font-size="14.00">UciService</text>
</g>
<!-- UciService&#45;&gt;ComponentsModule -->
<g id="edge32" class="edge">
<title>UciService&#45;&gt;ComponentsModule</title>
<path fill="none" stroke="black" d="M424,-122.25C424,-145.02 424,-181 424,-181 424,-181 2344.72,-181 2344.72,-181"/>
<polygon fill="black" stroke="black" points="2344.72,-184.5 2354.72,-181 2344.72,-177.5 2344.72,-184.5"/>
</g>
<!-- ConfigService -->
<g id="node34" class="node">
<title>ConfigService</title>
<ellipse fill="#fdb462" stroke="black" cx="285" cy="-104" rx="66.63" ry="18"/>
<text text-anchor="middle" x="285" y="-99.8" font-family="Times,serif" font-size="14.00">ConfigService</text>
</g>
<!-- ConfigService&#45;&gt;ComponentsModule -->
<g id="edge33" class="edge">
<title>ConfigService&#45;&gt;ComponentsModule</title>
<path fill="none" stroke="black" d="M285,-122.32C285,-145.66 285,-183 285,-183 285,-183 2344.64,-183 2344.64,-183"/>
<polygon fill="black" stroke="black" points="2344.65,-186.5 2354.64,-183 2344.64,-179.5 2344.65,-186.5"/>
</g>
<!-- UciGraphQlService -->
<g id="node35" class="node">
<title>UciGraphQlService</title>
<ellipse fill="#fdb462" stroke="black" cx="112" cy="-104" rx="87.94" ry="18"/>
<text text-anchor="middle" x="112" y="-99.8" font-family="Times,serif" font-size="14.00">UciGraphQlService</text>
</g>
<!-- UciGraphQlService&#45;&gt;ComponentsModule -->
<g id="edge34" class="edge">
<title>UciGraphQlService&#45;&gt;ComponentsModule</title>
<path fill="none" stroke="black" d="M112,-122.38C112,-146.28 112,-185 112,-185 112,-185 2344.64,-185 2344.64,-185"/>
<polygon fill="black" stroke="black" points="2344.64,-188.5 2354.64,-185 2344.64,-181.5 2344.64,-188.5"/>
</g>
</g>
</svg>
