<?xml version="1.0" encoding="UTF-8" standalone="no"?>
<!DOCTYPE svg PUBLIC "-//W3C//DTD SVG 1.1//EN"
 "http://www.w3.org/Graphics/SVG/1.1/DTD/svg11.dtd">
<!-- Generated by graphviz version 2.47.0 (20210316.0004)
 -->
<!-- Title: dependencies Pages: 1 -->
<svg width="6546pt" height="355pt"
 viewBox="0.00 0.00 6546.00 355.00" xmlns="http://www.w3.org/2000/svg" xmlns:xlink="http://www.w3.org/1999/xlink">
<g id="graph0" class="graph" transform="scale(1 1) rotate(0) translate(4 351)">
<title>dependencies</title>
<polygon fill="white" stroke="transparent" points="-4,4 -4,-351 6542,-351 6542,4 -4,4"/>
<text text-anchor="start" x="3248.01" y="-42.4" font-family="sans-serif" font-weight="bold" font-size="14.00">Legend</text>
<polygon fill="#ffffb3" stroke="transparent" points="3035,-10 3035,-30 3055,-30 3055,-10 3035,-10"/>
<text text-anchor="start" x="3058.63" y="-15.4" font-family="sans-serif" font-size="14.00"> &#160;Declarations</text>
<polygon fill="#8dd3c7" stroke="transparent" points="3148,-10 3148,-30 3168,-30 3168,-10 3148,-10"/>
<text text-anchor="start" x="3171.73" y="-15.4" font-family="sans-serif" font-size="14.00"> &#160;Module</text>
<polygon fill="#80b1d3" stroke="transparent" points="3234,-10 3234,-30 3254,-30 3254,-10 3234,-10"/>
<text text-anchor="start" x="3257.78" y="-15.4" font-family="sans-serif" font-size="14.00"> &#160;Bootstrap</text>
<polygon fill="#fdb462" stroke="transparent" points="3331,-10 3331,-30 3351,-30 3351,-10 3331,-10"/>
<text text-anchor="start" x="3354.67" y="-15.4" font-family="sans-serif" font-size="14.00"> &#160;Providers</text>
<polygon fill="#fb8072" stroke="transparent" points="3427,-10 3427,-30 3447,-30 3447,-10 3427,-10"/>
<text text-anchor="start" x="3450.73" y="-15.4" font-family="sans-serif" font-size="14.00"> &#160;Exports</text>
<g id="clust1" class="cluster">
<title>cluster_ComponentsModule</title>
<polygon fill="none" stroke="black" stroke-dasharray="1,5" points="8,-70 8,-271 5181,-271 5181,-70 8,-70"/>
</g>
<g id="clust2" class="cluster">
<title>cluster_ComponentsModule_declarations</title>
<polygon fill="none" stroke="black" points="494,-78 494,-130 2401,-130 2401,-78 494,-78"/>
</g>
<g id="clust13" class="cluster">
<title>cluster_ComponentsModule_imports</title>
<polygon fill="none" stroke="black" points="2409,-78 2409,-198 5173,-198 5173,-78 2409,-78"/>
</g>
<g id="clust14" class="cluster">
<title>cluster_ComponentsModule_exports</title>
<polygon fill="none" stroke="black" points="2258,-211 2258,-263 2414,-263 2414,-211 2258,-211"/>
</g>
<g id="clust16" class="cluster">
<title>cluster_ComponentsModule_providers</title>
<polygon fill="none" stroke="black" points="16,-78 16,-130 486,-130 486,-78 16,-78"/>
</g>
<g id="clust23" class="cluster">
<title>cluster_UciModule</title>
<polygon fill="none" stroke="black" stroke-dasharray="1,5" points="5189,-138 5189,-339 6530,-339 6530,-138 5189,-138"/>
</g>
<g id="clust24" class="cluster">
<title>cluster_UciModule_declarations</title>
<polygon fill="none" stroke="black" points="6374,-146 6374,-198 6522,-198 6522,-146 6374,-146"/>
</g>
<g id="clust26" class="cluster">
<title>cluster_UciModule_imports</title>
<polygon fill="none" stroke="black" points="6226,-146 6226,-198 6366,-198 6366,-146 6226,-146"/>
</g>
<g id="clust27" class="cluster">
<title>cluster_UciModule_exports</title>
<polygon fill="none" stroke="black" points="5857,-279 5857,-331 6009,-331 6009,-279 5857,-279"/>
</g>
<g id="clust29" class="cluster">
<title>cluster_UciModule_providers</title>
<polygon fill="none" stroke="black" points="5197,-146 5197,-198 6218,-198 6218,-146 5197,-146"/>
</g>
<!-- SidePanelComponent -->
<g id="node1" class="node">
<title>SidePanelComponent</title>
<polygon fill="#ffffb3" stroke="black" points="2392.82,-122 2255.18,-122 2255.18,-86 2392.82,-86 2392.82,-122"/>
<text text-anchor="middle" x="2324" y="-99.8" font-family="Times,serif" font-size="14.00">SidePanelComponent</text>
</g>
<!-- ComponentsModule -->
<g id="node11" class="node">
<title>ComponentsModule</title>
<polygon fill="#8dd3c7" stroke="black" points="2401.33,-190 2398.33,-194 2377.33,-194 2374.33,-190 2270.67,-190 2270.67,-154 2401.33,-154 2401.33,-190"/>
<text text-anchor="middle" x="2336" y="-167.8" font-family="Times,serif" font-size="14.00">ComponentsModule</text>
</g>
<!-- SidePanelComponent&#45;&gt;ComponentsModule -->
<g id="edge1" class="edge">
<title>SidePanelComponent&#45;&gt;ComponentsModule</title>
<path fill="none" stroke="black" d="M2283.02,-122.22C2283.02,-122.22 2283.02,-143.73 2283.02,-143.73"/>
<polygon fill="black" stroke="black" points="2279.52,-143.73 2283.02,-153.73 2286.52,-143.73 2279.52,-143.73"/>
</g>
<!-- ConversationListComponent -->
<g id="node2" class="node">
<title>ConversationListComponent</title>
<polygon fill="#ffffb3" stroke="black" points="2236.76,-122 2059.24,-122 2059.24,-86 2236.76,-86 2236.76,-122"/>
<text text-anchor="middle" x="2148" y="-99.8" font-family="Times,serif" font-size="14.00">ConversationListComponent</text>
</g>
<!-- ConversationListComponent&#45;&gt;ComponentsModule -->
<g id="edge2" class="edge">
<title>ConversationListComponent&#45;&gt;ComponentsModule</title>
<path fill="none" stroke="black" d="M2148,-122.24C2148,-137.57 2148,-157 2148,-157 2148,-157 2260.77,-157 2260.77,-157"/>
<polygon fill="black" stroke="black" points="2260.77,-160.5 2270.77,-157 2260.77,-153.5 2260.77,-160.5"/>
</g>
<!-- ConversationAddComponent -->
<g id="node3" class="node">
<title>ConversationAddComponent</title>
<polygon fill="#ffffb3" stroke="black" points="2041.09,-122 1860.91,-122 1860.91,-86 2041.09,-86 2041.09,-122"/>
<text text-anchor="middle" x="1951" y="-99.8" font-family="Times,serif" font-size="14.00">ConversationAddComponent</text>
</g>
<!-- ConversationAddComponent&#45;&gt;ComponentsModule -->
<g id="edge3" class="edge">
<title>ConversationAddComponent&#45;&gt;ComponentsModule</title>
<path fill="none" stroke="black" d="M1951,-122.03C1951,-138.4 1951,-160 1951,-160 1951,-160 2260.69,-160 2260.69,-160"/>
<polygon fill="black" stroke="black" points="2260.69,-163.5 2270.69,-160 2260.69,-156.5 2260.69,-163.5"/>
</g>
<!-- UserSegmentListComponent -->
<g id="node4" class="node">
<title>UserSegmentListComponent</title>
<polygon fill="#ffffb3" stroke="black" points="1843.03,-122 1664.97,-122 1664.97,-86 1843.03,-86 1843.03,-122"/>
<text text-anchor="middle" x="1754" y="-99.8" font-family="Times,serif" font-size="14.00">UserSegmentListComponent</text>
</g>
<!-- UserSegmentListComponent&#45;&gt;ComponentsModule -->
<g id="edge4" class="edge">
<title>UserSegmentListComponent&#45;&gt;ComponentsModule</title>
<path fill="none" stroke="black" d="M1754,-122.02C1754,-139.37 1754,-163 1754,-163 1754,-163 2260.65,-163 2260.65,-163"/>
<polygon fill="black" stroke="black" points="2260.65,-166.5 2270.65,-163 2260.65,-159.5 2260.65,-166.5"/>
</g>
<!-- UserSegmentAddComponent -->
<g id="node5" class="node">
<title>UserSegmentAddComponent</title>
<polygon fill="#ffffb3" stroke="black" points="1646.36,-122 1465.64,-122 1465.64,-86 1646.36,-86 1646.36,-122"/>
<text text-anchor="middle" x="1556" y="-99.8" font-family="Times,serif" font-size="14.00">UserSegmentAddComponent</text>
</g>
<!-- UserSegmentAddComponent&#45;&gt;ComponentsModule -->
<g id="edge5" class="edge">
<title>UserSegmentAddComponent&#45;&gt;ComponentsModule</title>
<path fill="none" stroke="black" d="M1556,-122.27C1556,-140.56 1556,-166 1556,-166 1556,-166 2260.5,-166 2260.5,-166"/>
<polygon fill="black" stroke="black" points="2260.5,-169.5 2270.5,-166 2260.5,-162.5 2260.5,-169.5"/>
</g>
<!-- TermsConditionsComponent -->
<g id="node6" class="node">
<title>TermsConditionsComponent</title>
<polygon fill="#ffffb3" stroke="black" points="1447.05,-122 1268.95,-122 1268.95,-86 1447.05,-86 1447.05,-122"/>
<text text-anchor="middle" x="1358" y="-99.8" font-family="Times,serif" font-size="14.00">TermsConditionsComponent</text>
</g>
<!-- TermsConditionsComponent&#45;&gt;ComponentsModule -->
<g id="edge6" class="edge">
<title>TermsConditionsComponent&#45;&gt;ComponentsModule</title>
<path fill="none" stroke="black" d="M1358,-122.17C1358,-141.09 1358,-168 1358,-168 1358,-168 2260.69,-168 2260.69,-168"/>
<polygon fill="black" stroke="black" points="2260.69,-171.5 2270.69,-168 2260.69,-164.5 2260.69,-171.5"/>
</g>
<!-- TermsConditionConfirmComponent -->
<g id="node7" class="node">
<title>TermsConditionConfirmComponent</title>
<polygon fill="#ffffb3" stroke="black" points="1250.04,-122 1029.96,-122 1029.96,-86 1250.04,-86 1250.04,-122"/>
<text text-anchor="middle" x="1140" y="-99.8" font-family="Times,serif" font-size="14.00">TermsConditionConfirmComponent</text>
</g>
<!-- TermsConditionConfirmComponent&#45;&gt;ComponentsModule -->
<g id="edge7" class="edge">
<title>TermsConditionConfirmComponent&#45;&gt;ComponentsModule</title>
<path fill="none" stroke="black" d="M1140,-122.31C1140,-142.15 1140,-171 1140,-171 1140,-171 2260.42,-171 2260.42,-171"/>
<polygon fill="black" stroke="black" points="2260.42,-174.5 2270.42,-171 2260.42,-167.5 2260.42,-174.5"/>
</g>
<!-- ConversationSuccessComponent -->
<g id="node8" class="node">
<title>ConversationSuccessComponent</title>
<polygon fill="#ffffb3" stroke="black" points="1012.3,-122 811.7,-122 811.7,-86 1012.3,-86 1012.3,-122"/>
<text text-anchor="middle" x="912" y="-99.8" font-family="Times,serif" font-size="14.00">ConversationSuccessComponent</text>
</g>
<!-- ConversationSuccessComponent&#45;&gt;ComponentsModule -->
<g id="edge8" class="edge">
<title>ConversationSuccessComponent&#45;&gt;ComponentsModule</title>
<path fill="none" stroke="black" d="M912,-122.03C912,-142.77 912,-174 912,-174 912,-174 2260.64,-174 2260.64,-174"/>
<polygon fill="black" stroke="black" points="2260.64,-177.5 2270.64,-174 2260.64,-170.5 2260.64,-177.5"/>
</g>
<!-- AddLogicComponent -->
<g id="node9" class="node">
<title>AddLogicComponent</title>
<polygon fill="#ffffb3" stroke="black" points="794.1,-122 655.9,-122 655.9,-86 794.1,-86 794.1,-122"/>
<text text-anchor="middle" x="725" y="-99.8" font-family="Times,serif" font-size="14.00">AddLogicComponent</text>
</g>
<!-- AddLogicComponent&#45;&gt;ComponentsModule -->
<g id="edge9" class="edge">
<title>AddLogicComponent&#45;&gt;ComponentsModule</title>
<path fill="none" stroke="black" d="M725,-122.04C725,-143.66 725,-177 725,-177 725,-177 2260.6,-177 2260.6,-177"/>
<polygon fill="black" stroke="black" points="2260.6,-180.5 2270.6,-177 2260.6,-173.5 2260.6,-180.5"/>
</g>
<!-- LogicListComponent -->
<g id="node10" class="node">
<title>LogicListComponent</title>
<polygon fill="#ffffb3" stroke="black" points="637.77,-122 502.23,-122 502.23,-86 637.77,-86 637.77,-122"/>
<text text-anchor="middle" x="570" y="-99.8" font-family="Times,serif" font-size="14.00">LogicListComponent</text>
</g>
<!-- LogicListComponent&#45;&gt;ComponentsModule -->
<g id="edge10" class="edge">
<title>LogicListComponent&#45;&gt;ComponentsModule</title>
<path fill="none" stroke="black" d="M570,-122.16C570,-144.35 570,-179 570,-179 570,-179 2260.79,-179 2260.79,-179"/>
<polygon fill="black" stroke="black" points="2260.79,-182.5 2270.79,-179 2260.79,-175.5 2260.79,-182.5"/>
</g>
<!-- SidePanelComponent  -->
<g id="node32" class="node">
<title>SidePanelComponent </title>
<polygon fill="#fb8072" stroke="black" points="2406.32,-255 2265.68,-255 2265.68,-219 2406.32,-219 2406.32,-255"/>
<text text-anchor="middle" x="2336" y="-232.8" font-family="Times,serif" font-size="14.00">SidePanelComponent </text>
</g>
<!-- ComponentsModule&#45;&gt;SidePanelComponent  -->
<g id="edge31" class="edge">
<title>ComponentsModule&#45;&gt;SidePanelComponent </title>
<path fill="none" stroke="black" stroke-dasharray="5,2" d="M2336,-190.11C2336,-190.11 2336,-208.99 2336,-208.99"/>
<polygon fill="black" stroke="black" points="2332.5,-208.99 2336,-218.99 2339.5,-208.99 2332.5,-208.99"/>
</g>
<!-- UciModule -->
<g id="node37" class="node">
<title>UciModule</title>
<polygon fill="#8dd3c7" stroke="black" points="5972.76,-255 5969.76,-259 5948.76,-259 5945.76,-255 5893.24,-255 5893.24,-219 5972.76,-219 5972.76,-255"/>
<text text-anchor="middle" x="5933" y="-232.8" font-family="Times,serif" font-size="14.00">UciModule</text>
</g>
<!-- ComponentsModule&#45;&gt;UciModule -->
<g id="edge38" class="edge">
<title>ComponentsModule&#45;&gt;UciModule</title>
<path fill="none" stroke="black" d="M2401.31,-187C2443.28,-187 2490,-187 2490,-187 2490,-187 2490,-246 2490,-246 2490,-246 5883.14,-246 5883.14,-246"/>
<polygon fill="black" stroke="black" points="5883.14,-249.5 5893.14,-246 5883.14,-242.5 5883.14,-249.5"/>
</g>
<!-- CommonModule -->
<g id="node12" class="node">
<title>CommonModule</title>
<polygon fill="#8dd3c7" stroke="black" points="5164.67,-122 5161.67,-126 5140.67,-126 5137.67,-122 5053.33,-122 5053.33,-86 5164.67,-86 5164.67,-122"/>
<text text-anchor="middle" x="5109" y="-99.8" font-family="Times,serif" font-size="14.00">CommonModule</text>
</g>
<!-- CommonModule&#45;&gt;ComponentsModule -->
<g id="edge11" class="edge">
<title>CommonModule&#45;&gt;ComponentsModule</title>
<path fill="none" stroke="black" d="M5090.39,-122.06C5090.39,-133.44 5090.39,-146 5090.39,-146 5090.39,-146 2380.48,-146 2380.48,-146 2380.48,-146 2380.48,-146.79 2380.48,-146.79"/>
<polygon fill="black" stroke="black" points="2376.98,-143.94 2380.48,-153.94 2383.98,-143.94 2376.98,-143.94"/>
</g>
<!-- PipesModule -->
<g id="node17" class="node">
<title>PipesModule</title>
<polygon fill="#8dd3c7" stroke="black" points="3830.88,-190 3827.88,-194 3806.88,-194 3803.88,-190 3741.12,-190 3741.12,-154 3830.88,-154 3830.88,-190"/>
<text text-anchor="middle" x="3786" y="-167.8" font-family="Times,serif" font-size="14.00">PipesModule</text>
</g>
<!-- CommonModule&#45;&gt;PipesModule -->
<g id="edge36" class="edge">
<title>CommonModule&#45;&gt;PipesModule</title>
<path fill="none" stroke="black" d="M5127.61,-122.22C5127.61,-142.37 5127.61,-172 5127.61,-172 5127.61,-172 3841.02,-172 3841.02,-172"/>
<polygon fill="black" stroke="black" points="3841.02,-168.5 3831.02,-172 3841.02,-175.5 3841.02,-168.5"/>
</g>
<!-- HttpClientModule -->
<g id="node13" class="node">
<title>HttpClientModule</title>
<polygon fill="#8dd3c7" stroke="black" points="5035.16,-122 5032.16,-126 5011.16,-126 5008.16,-122 4916.84,-122 4916.84,-86 5035.16,-86 5035.16,-122"/>
<text text-anchor="middle" x="4976" y="-99.8" font-family="Times,serif" font-size="14.00">HttpClientModule</text>
</g>
<!-- HttpClientModule&#45;&gt;ComponentsModule -->
<g id="edge12" class="edge">
<title>HttpClientModule&#45;&gt;ComponentsModule</title>
<path fill="none" stroke="black" d="M4976,-122.13C4976,-132.31 4976,-143 4976,-143 4976,-143 2368.3,-143 2368.3,-143 2368.3,-143 2368.3,-144.08 2368.3,-144.08"/>
<polygon fill="black" stroke="black" points="2364.8,-143.8 2368.3,-153.8 2371.8,-143.8 2364.8,-143.8"/>
</g>
<!-- FormsModule -->
<g id="node14" class="node">
<title>FormsModule</title>
<polygon fill="#8dd3c7" stroke="black" points="4898.83,-122 4895.83,-126 4874.83,-126 4871.83,-122 4803.17,-122 4803.17,-86 4898.83,-86 4898.83,-122"/>
<text text-anchor="middle" x="4851" y="-99.8" font-family="Times,serif" font-size="14.00">FormsModule</text>
</g>
<!-- FormsModule&#45;&gt;ComponentsModule -->
<g id="edge13" class="edge">
<title>FormsModule&#45;&gt;ComponentsModule</title>
<path fill="none" stroke="black" d="M4851,-122.42C4851,-131.28 4851,-140 4851,-140 4851,-140 2356.11,-140 2356.11,-140 2356.11,-140 2356.11,-143.76 2356.11,-143.76"/>
<polygon fill="black" stroke="black" points="2352.61,-143.76 2356.11,-153.76 2359.61,-143.76 2352.61,-143.76"/>
</g>
<!-- ReactiveFormsModule -->
<g id="node15" class="node">
<title>ReactiveFormsModule</title>
<polygon fill="#8dd3c7" stroke="black" points="4785.3,-122 4782.3,-126 4761.3,-126 4758.3,-122 4640.7,-122 4640.7,-86 4785.3,-86 4785.3,-122"/>
<text text-anchor="middle" x="4713" y="-99.8" font-family="Times,serif" font-size="14.00">ReactiveFormsModule</text>
</g>
<!-- ReactiveFormsModule&#45;&gt;ComponentsModule -->
<g id="edge14" class="edge">
<title>ReactiveFormsModule&#45;&gt;ComponentsModule</title>
<path fill="none" stroke="black" d="M4713,-122.04C4713,-129.75 4713,-137 4713,-137 4713,-137 2343.93,-137 2343.93,-137 2343.93,-137 2343.93,-143.68 2343.93,-143.68"/>
<polygon fill="black" stroke="black" points="2340.43,-143.68 2343.93,-153.68 2347.43,-143.68 2340.43,-143.68"/>
</g>
<!-- TagInputModule -->
<g id="node16" class="node">
<title>TagInputModule</title>
<polygon fill="#8dd3c7" stroke="black" points="4622.37,-122 4619.37,-126 4598.37,-126 4595.37,-122 4511.63,-122 4511.63,-86 4622.37,-86 4622.37,-122"/>
<text text-anchor="middle" x="4567" y="-99.8" font-family="Times,serif" font-size="14.00">TagInputModule</text>
</g>
<!-- TagInputModule&#45;&gt;ComponentsModule -->
<g id="edge15" class="edge">
<title>TagInputModule&#45;&gt;ComponentsModule</title>
<path fill="none" stroke="black" d="M4567,-122.14C4567,-128.46 4567,-134 4567,-134 4567,-134 2331.75,-134 2331.75,-134 2331.75,-134 2331.75,-143.89 2331.75,-143.89"/>
<polygon fill="black" stroke="black" points="2328.25,-143.89 2331.75,-153.89 2335.25,-143.89 2328.25,-143.89"/>
</g>
<!-- PipesModule&#45;&gt;ComponentsModule -->
<g id="edge16" class="edge">
<title>PipesModule&#45;&gt;ComponentsModule</title>
<path fill="none" stroke="black" d="M3741.01,-184C3741.01,-184 2411.17,-184 2411.17,-184"/>
<polygon fill="black" stroke="black" points="2411.17,-180.5 2401.17,-184 2411.17,-187.5 2411.17,-180.5"/>
</g>
<!-- InfiniteScrollModule -->
<g id="node18" class="node">
<title>InfiniteScrollModule</title>
<polygon fill="#8dd3c7" stroke="black" points="4493.2,-122 4490.2,-126 4469.2,-126 4466.2,-122 4358.8,-122 4358.8,-86 4493.2,-86 4493.2,-122"/>
<text text-anchor="middle" x="4426" y="-99.8" font-family="Times,serif" font-size="14.00">InfiniteScrollModule</text>
</g>
<!-- InfiniteScrollModule&#45;&gt;ComponentsModule -->
<g id="edge17" class="edge">
<title>InfiniteScrollModule&#45;&gt;ComponentsModule</title>
<path fill="none" stroke="black" d="M4426,-122.16C4426,-127.04 4426,-131 4426,-131 4426,-131 2319.57,-131 2319.57,-131 2319.57,-131 2319.57,-143.9 2319.57,-143.9"/>
<polygon fill="black" stroke="black" points="2316.07,-143.9 2319.57,-153.9 2323.07,-143.9 2316.07,-143.9"/>
</g>
<!-- CommonFormElementsModule -->
<g id="node19" class="node">
<title>CommonFormElementsModule</title>
<polygon fill="#8dd3c7" stroke="black" points="4341.1,-122 4338.1,-126 4317.1,-126 4314.1,-122 4146.9,-122 4146.9,-86 4341.1,-86 4341.1,-122"/>
<text text-anchor="middle" x="4244" y="-99.8" font-family="Times,serif" font-size="14.00">CommonFormElementsModule</text>
</g>
<!-- CommonFormElementsModule&#45;&gt;ComponentsModule -->
<g id="edge18" class="edge">
<title>CommonFormElementsModule&#45;&gt;ComponentsModule</title>
<path fill="none" stroke="black" d="M4244,-122.19C4244,-125.54 4244,-128 4244,-128 4244,-128 2307.38,-128 2307.38,-128 2307.38,-128 2307.38,-143.85 2307.38,-143.85"/>
<polygon fill="black" stroke="black" points="2303.88,-143.85 2307.38,-153.85 2310.88,-143.85 2303.88,-143.85"/>
</g>
<!-- SuiModule -->
<g id="node20" class="node">
<title>SuiModule</title>
<polygon fill="#8dd3c7" stroke="black" points="4129.22,-122 4126.22,-126 4105.22,-126 4102.22,-122 4050.78,-122 4050.78,-86 4129.22,-86 4129.22,-122"/>
<text text-anchor="middle" x="4090" y="-99.8" font-family="Times,serif" font-size="14.00">SuiModule</text>
</g>
<!-- SuiModule&#45;&gt;ComponentsModule -->
<g id="edge19" class="edge">
<title>SuiModule&#45;&gt;ComponentsModule</title>
<path fill="none" stroke="black" d="M4090,-122.08C4090,-123.85 4090,-125 4090,-125 4090,-125 2295.2,-125 2295.2,-125 2295.2,-125 2295.2,-143.96 2295.2,-143.96"/>
<polygon fill="black" stroke="black" points="2291.7,-143.96 2295.2,-153.96 2298.7,-143.96 2291.7,-143.96"/>
</g>
<!-- MatButtonModule -->
<g id="node21" class="node">
<title>MatButtonModule</title>
<polygon fill="#8dd3c7" stroke="black" points="4033.22,-122 4030.22,-126 4009.22,-126 4006.22,-122 3912.78,-122 3912.78,-86 4033.22,-86 4033.22,-122"/>
<text text-anchor="middle" x="3973" y="-99.8" font-family="Times,serif" font-size="14.00">MatButtonModule</text>
</g>
<!-- MatButtonModule&#45;&gt;ComponentsModule -->
<g id="edge20" class="edge">
<title>MatButtonModule&#45;&gt;ComponentsModule</title>
<path fill="none" stroke="black" d="M3973,-122.15C3973,-135.74 3973,-152 3973,-152 3973,-152 2399.04,-152 2399.04,-152 2399.04,-152 2399.04,-152.18 2399.04,-152.18"/>
<polygon fill="black" stroke="black" points="2395.54,-143.85 2399.04,-153.85 2402.54,-143.85 2395.54,-143.85"/>
</g>
<!-- MatInputModule -->
<g id="node22" class="node">
<title>MatInputModule</title>
<polygon fill="#8dd3c7" stroke="black" points="3894.65,-122 3891.65,-126 3870.65,-126 3867.65,-122 3783.35,-122 3783.35,-86 3894.65,-86 3894.65,-122"/>
<text text-anchor="middle" x="3839" y="-99.8" font-family="Times,serif" font-size="14.00">MatInputModule</text>
</g>
<!-- MatInputModule&#45;&gt;ComponentsModule -->
<g id="edge21" class="edge">
<title>MatInputModule&#45;&gt;ComponentsModule</title>
<path fill="none" stroke="black" d="M3807.06,-122.04C3807.06,-134.56 3807.06,-149 3807.06,-149 3807.06,-149 2396.91,-149 2396.91,-149 2396.91,-149 2396.91,-149.49 2396.91,-149.49"/>
<polygon fill="black" stroke="black" points="2393.41,-143.88 2396.91,-153.88 2400.41,-143.88 2393.41,-143.88"/>
</g>
<!-- MatGridListModule -->
<g id="node23" class="node">
<title>MatGridListModule</title>
<polygon fill="#8dd3c7" stroke="black" points="3764.54,-122 3761.54,-126 3740.54,-126 3737.54,-122 3635.46,-122 3635.46,-86 3764.54,-86 3764.54,-122"/>
<text text-anchor="middle" x="3700" y="-99.8" font-family="Times,serif" font-size="14.00">MatGridListModule</text>
</g>
<!-- MatGridListModule&#45;&gt;ComponentsModule -->
<g id="edge22" class="edge">
<title>MatGridListModule&#45;&gt;ComponentsModule</title>
<path fill="none" stroke="black" d="M3688.15,-122.25C3688.15,-145.02 3688.15,-181 3688.15,-181 3688.15,-181 2411.22,-181 2411.22,-181"/>
<polygon fill="black" stroke="black" points="2411.22,-177.5 2401.22,-181 2411.22,-184.5 2411.22,-177.5"/>
</g>
<!-- MatCheckboxModule -->
<g id="node24" class="node">
<title>MatCheckboxModule</title>
<polygon fill="#8dd3c7" stroke="black" points="3617.37,-122 3614.37,-126 3593.37,-126 3590.37,-122 3478.63,-122 3478.63,-86 3617.37,-86 3617.37,-122"/>
<text text-anchor="middle" x="3548" y="-99.8" font-family="Times,serif" font-size="14.00">MatCheckboxModule</text>
</g>
<!-- MatCheckboxModule&#45;&gt;ComponentsModule -->
<g id="edge23" class="edge">
<title>MatCheckboxModule&#45;&gt;ComponentsModule</title>
<path fill="none" stroke="black" d="M3548,-122.29C3548,-144.21 3548,-178 3548,-178 3548,-178 2411.59,-178 2411.59,-178"/>
<polygon fill="black" stroke="black" points="2411.59,-174.5 2401.59,-178 2411.59,-181.5 2411.59,-174.5"/>
</g>
<!-- MatDialogModule -->
<g id="node25" class="node">
<title>MatDialogModule</title>
<polygon fill="#8dd3c7" stroke="black" points="3460.2,-122 3457.2,-126 3436.2,-126 3433.2,-122 3339.8,-122 3339.8,-86 3460.2,-86 3460.2,-122"/>
<text text-anchor="middle" x="3400" y="-99.8" font-family="Times,serif" font-size="14.00">MatDialogModule</text>
</g>
<!-- MatDialogModule&#45;&gt;ComponentsModule -->
<g id="edge24" class="edge">
<title>MatDialogModule&#45;&gt;ComponentsModule</title>
<path fill="none" stroke="black" d="M3400,-122.28C3400,-143.32 3400,-175 3400,-175 3400,-175 2411.36,-175 2411.36,-175"/>
<polygon fill="black" stroke="black" points="2411.36,-171.5 2401.36,-175 2411.36,-178.5 2411.36,-171.5"/>
</g>
<!-- MatTableModule -->
<g id="node26" class="node">
<title>MatTableModule</title>
<polygon fill="#8dd3c7" stroke="black" points="3321.97,-122 3318.97,-126 3297.97,-126 3294.97,-122 3208.03,-122 3208.03,-86 3321.97,-86 3321.97,-122"/>
<text text-anchor="middle" x="3265" y="-99.8" font-family="Times,serif" font-size="14.00">MatTableModule</text>
</g>
<!-- MatTableModule&#45;&gt;ComponentsModule -->
<g id="edge25" class="edge">
<title>MatTableModule&#45;&gt;ComponentsModule</title>
<path fill="none" stroke="black" d="M3265,-122.22C3265,-142.37 3265,-172 3265,-172 3265,-172 2411.33,-172 2411.33,-172"/>
<polygon fill="black" stroke="black" points="2411.33,-168.5 2401.33,-172 2411.33,-175.5 2411.33,-168.5"/>
</g>
<!-- MatPaginatorModule -->
<g id="node27" class="node">
<title>MatPaginatorModule</title>
<polygon fill="#8dd3c7" stroke="black" points="3189.75,-122 3186.75,-126 3165.75,-126 3162.75,-122 3054.25,-122 3054.25,-86 3189.75,-86 3189.75,-122"/>
<text text-anchor="middle" x="3122" y="-99.8" font-family="Times,serif" font-size="14.00">MatPaginatorModule</text>
</g>
<!-- MatPaginatorModule&#45;&gt;ComponentsModule -->
<g id="edge26" class="edge">
<title>MatPaginatorModule&#45;&gt;ComponentsModule</title>
<path fill="none" stroke="black" d="M3122,-122.11C3122,-141.34 3122,-169 3122,-169 3122,-169 2411.33,-169 2411.33,-169"/>
<polygon fill="black" stroke="black" points="2411.33,-165.5 2401.33,-169 2411.33,-172.5 2411.33,-165.5"/>
</g>
<!-- MatIconModule -->
<g id="node28" class="node">
<title>MatIconModule</title>
<polygon fill="#8dd3c7" stroke="black" points="3036.47,-122 3033.47,-126 3012.47,-126 3009.47,-122 2929.53,-122 2929.53,-86 3036.47,-86 3036.47,-122"/>
<text text-anchor="middle" x="2983" y="-99.8" font-family="Times,serif" font-size="14.00">MatIconModule</text>
</g>
<!-- MatIconModule&#45;&gt;ComponentsModule -->
<g id="edge27" class="edge">
<title>MatIconModule&#45;&gt;ComponentsModule</title>
<path fill="none" stroke="black" d="M2983,-122.27C2983,-140.56 2983,-166 2983,-166 2983,-166 2411.3,-166 2411.3,-166"/>
<polygon fill="black" stroke="black" points="2411.3,-162.5 2401.3,-166 2411.3,-169.5 2411.3,-162.5"/>
</g>
<!-- MatMenuModule -->
<g id="node29" class="node">
<title>MatMenuModule</title>
<polygon fill="#8dd3c7" stroke="black" points="2911.26,-122 2908.26,-126 2887.26,-126 2884.26,-122 2796.74,-122 2796.74,-86 2911.26,-86 2911.26,-122"/>
<text text-anchor="middle" x="2854" y="-99.8" font-family="Times,serif" font-size="14.00">MatMenuModule</text>
</g>
<!-- MatMenuModule&#45;&gt;ComponentsModule -->
<g id="edge28" class="edge">
<title>MatMenuModule&#45;&gt;ComponentsModule</title>
<path fill="none" stroke="black" d="M2854,-122.02C2854,-139.37 2854,-163 2854,-163 2854,-163 2411.34,-163 2411.34,-163"/>
<polygon fill="black" stroke="black" points="2411.34,-159.5 2401.34,-163 2411.34,-166.5 2411.34,-159.5"/>
</g>
<!-- MatDatepickerModule -->
<g id="node30" class="node">
<title>MatDatepickerModule</title>
<ellipse fill="#8dd3c7" stroke="black" cx="2680" cy="-104" rx="98.98" ry="18"/>
<text text-anchor="middle" x="2680" y="-99.8" font-family="Times,serif" font-size="14.00">MatDatepickerModule</text>
</g>
<!-- MatDatepickerModule&#45;&gt;ComponentsModule -->
<g id="edge29" class="edge">
<title>MatDatepickerModule&#45;&gt;ComponentsModule</title>
<path fill="none" stroke="black" d="M2713,-121.11C2713,-137.57 2713,-160 2713,-160 2713,-160 2411.24,-160 2411.24,-160"/>
<polygon fill="black" stroke="black" points="2411.24,-156.5 2401.24,-160 2411.24,-163.5 2411.24,-156.5"/>
</g>
<!-- MatDatepickerModule&#45;&gt;ComponentsModule -->
<g id="edge35" class="edge">
<title>MatDatepickerModule&#45;&gt;ComponentsModule</title>
<path fill="none" stroke="black" d="M2647,-121.06C2647,-136.55 2647,-157 2647,-157 2647,-157 2411.2,-157 2411.2,-157"/>
<polygon fill="black" stroke="black" points="2411.2,-153.5 2401.2,-157 2411.2,-160.5 2411.2,-153.5"/>
</g>
<!-- MatNativeDateModule -->
<g id="node31" class="node">
<title>MatNativeDateModule</title>
<polygon fill="#8dd3c7" stroke="black" points="2562.84,-122 2559.84,-126 2538.84,-126 2535.84,-122 2417.16,-122 2417.16,-86 2562.84,-86 2562.84,-122"/>
<text text-anchor="middle" x="2490" y="-99.8" font-family="Times,serif" font-size="14.00">MatNativeDateModule</text>
</g>
<!-- MatNativeDateModule&#45;&gt;ComponentsModule -->
<g id="edge30" class="edge">
<title>MatNativeDateModule&#45;&gt;ComponentsModule</title>
<path fill="none" stroke="black" d="M2416.87,-104C2404.08,-104 2394.79,-104 2394.79,-104 2394.79,-104 2394.79,-143.78 2394.79,-143.78"/>
<polygon fill="black" stroke="black" points="2391.29,-143.78 2394.79,-153.78 2398.29,-143.78 2391.29,-143.78"/>
</g>
<!-- UciService -->
<g id="node33" class="node">
<title>UciService</title>
<ellipse fill="#fdb462" stroke="black" cx="424" cy="-104" rx="53.87" ry="18"/>
<text text-anchor="middle" x="424" y="-99.8" font-family="Times,serif" font-size="14.00">UciService</text>
</g>
<!-- UciService&#45;&gt;ComponentsModule -->
<g id="edge32" class="edge">
<title>UciService&#45;&gt;ComponentsModule</title>
<path fill="none" stroke="black" d="M424,-122.09C424,-145.13 424,-182 424,-182 424,-182 2260.74,-182 2260.74,-182"/>
<polygon fill="black" stroke="black" points="2260.74,-185.5 2270.74,-182 2260.74,-178.5 2260.74,-185.5"/>
</g>
<!-- ConfigService -->
<g id="node34" class="node">
<title>ConfigService</title>
<ellipse fill="#fdb462" stroke="black" cx="285" cy="-104" rx="66.63" ry="18"/>
<text text-anchor="middle" x="285" y="-99.8" font-family="Times,serif" font-size="14.00">ConfigService</text>
</g>
<!-- ConfigService&#45;&gt;ComponentsModule -->
<g id="edge33" class="edge">
<title>ConfigService&#45;&gt;ComponentsModule</title>
<path fill="none" stroke="black" d="M285,-122.38C285,-146.28 285,-185 285,-185 285,-185 2260.66,-185 2260.66,-185"/>
<polygon fill="black" stroke="black" points="2260.66,-188.5 2270.66,-185 2260.66,-181.5 2260.66,-188.5"/>
</g>
<!-- UciGraphQlService -->
<g id="node35" class="node">
<title>UciGraphQlService</title>
<ellipse fill="#fdb462" stroke="black" cx="112" cy="-104" rx="87.94" ry="18"/>
<text text-anchor="middle" x="112" y="-99.8" font-family="Times,serif" font-size="14.00">UciGraphQlService</text>
</g>
<!-- UciGraphQlService&#45;&gt;ComponentsModule -->
<g id="edge34" class="edge">
<title>UciGraphQlService&#45;&gt;ComponentsModule</title>
<path fill="none" stroke="black" d="M112,-122.23C112,-146.93 112,-188 112,-188 112,-188 2260.64,-188 2260.64,-188"/>
<polygon fill="black" stroke="black" points="2260.64,-191.5 2270.64,-188 2260.64,-184.5 2260.64,-191.5"/>
</g>
<!-- LibEntryComponent -->
<g id="node36" class="node">
<title>LibEntryComponent</title>
<polygon fill="#ffffb3" stroke="black" points="6513.88,-190 6382.12,-190 6382.12,-154 6513.88,-154 6513.88,-190"/>
<text text-anchor="middle" x="6448" y="-167.8" font-family="Times,serif" font-size="14.00">LibEntryComponent</text>
</g>
<!-- LibEntryComponent&#45;&gt;UciModule -->
<g id="edge37" class="edge">
<title>LibEntryComponent&#45;&gt;UciModule</title>
<path fill="none" stroke="black" d="M6448,-190.29C6448,-212.21 6448,-246 6448,-246 6448,-246 5982.98,-246 5982.98,-246"/>
<polygon fill="black" stroke="black" points="5982.98,-242.5 5972.98,-246 5982.98,-249.5 5982.98,-242.5"/>
</g>
<!-- LibEntryComponent  -->
<g id="node39" class="node">
<title>LibEntryComponent </title>
<polygon fill="#fb8072" stroke="black" points="6000.88,-323 5865.12,-323 5865.12,-287 6000.88,-287 6000.88,-323"/>
<text text-anchor="middle" x="5933" y="-300.8" font-family="Times,serif" font-size="14.00">LibEntryComponent </text>
</g>
<!-- UciModule&#45;&gt;LibEntryComponent  -->
<g id="edge40" class="edge">
<title>UciModule&#45;&gt;LibEntryComponent </title>
<path fill="none" stroke="black" stroke-dasharray="5,2" d="M5933,-255.22C5933,-255.22 5933,-276.73 5933,-276.73"/>
<polygon fill="black" stroke="black" points="5929.5,-276.73 5933,-286.73 5936.5,-276.73 5929.5,-276.73"/>
</g>
<!-- UciRoutingModule -->
<g id="node38" class="node">
<title>UciRoutingModule</title>
<polygon fill="#8dd3c7" stroke="black" points="6358.38,-190 6355.38,-194 6334.38,-194 6331.38,-190 6233.62,-190 6233.62,-154 6358.38,-154 6358.38,-190"/>
<text text-anchor="middle" x="6296" y="-167.8" font-family="Times,serif" font-size="14.00">UciRoutingModule</text>
</g>
<!-- UciRoutingModule&#45;&gt;UciModule -->
<g id="edge39" class="edge">
<title>UciRoutingModule&#45;&gt;UciModule</title>
<path fill="none" stroke="black" d="M6296,-190.11C6296,-209.34 6296,-237 6296,-237 6296,-237 5982.89,-237 5982.89,-237"/>
<polygon fill="black" stroke="black" points="5982.89,-233.5 5972.89,-237 5982.89,-240.5 5982.89,-233.5"/>
</g>
<!-- UciEventsService -->
<g id="node40" class="node">
<title>UciEventsService</title>
<ellipse fill="#fdb462" stroke="black" cx="6130" cy="-172" rx="80.43" ry="18"/>
<text text-anchor="middle" x="6130" y="-167.8" font-family="Times,serif" font-size="14.00">UciEventsService</text>
</g>
<!-- UciEventsService&#45;&gt;UciModule -->
<g id="edge41" class="edge">
<title>UciEventsService&#45;&gt;UciModule</title>
<path fill="none" stroke="black" d="M6130,-190.03C6130,-206.4 6130,-228 6130,-228 6130,-228 5982.87,-228 5982.87,-228"/>
<polygon fill="black" stroke="black" points="5982.87,-224.5 5972.87,-228 5982.87,-231.5 5982.87,-224.5"/>
</g>
<!-- TelemetryUtilsService -->
<g id="node41" class="node">
<title>TelemetryUtilsService</title>
<ellipse fill="#fdb462" stroke="black" cx="5933" cy="-172" rx="98.4" ry="18"/>
<text text-anchor="middle" x="5933" y="-167.8" font-family="Times,serif" font-size="14.00">TelemetryUtilsService</text>
</g>
<!-- TelemetryUtilsService&#45;&gt;UciModule -->
<g id="edge42" class="edge">
<title>TelemetryUtilsService&#45;&gt;UciModule</title>
<path fill="none" stroke="black" d="M5933,-190.11C5933,-190.11 5933,-208.99 5933,-208.99"/>
<polygon fill="black" stroke="black" points="5929.5,-208.99 5933,-218.99 5936.5,-208.99 5929.5,-208.99"/>
</g>
<!-- ToasterService -->
<g id="node42" class="node">
<title>ToasterService</title>
<ellipse fill="#fdb462" stroke="black" cx="5748" cy="-172" rx="68.89" ry="18"/>
<text text-anchor="middle" x="5748" y="-167.8" font-family="Times,serif" font-size="14.00">ToasterService</text>
</g>
<!-- ToasterService&#45;&gt;UciModule -->
<g id="edge43" class="edge">
<title>ToasterService&#45;&gt;UciModule</title>
<path fill="none" stroke="black" d="M5748,-190.03C5748,-206.4 5748,-228 5748,-228 5748,-228 5882.86,-228 5882.86,-228"/>
<polygon fill="black" stroke="black" points="5882.86,-231.5 5892.86,-228 5882.86,-224.5 5882.86,-231.5"/>
</g>
<!-- { provide: &#39;CsModule&#39;, useFactory: provideCsModule } -->
<g id="node43" class="node">
<title>{ provide: &#39;CsModule&#39;, useFactory: provideCsModule }</title>
<ellipse fill="#fdb462" stroke="black" cx="5433" cy="-172" rx="228.35" ry="18"/>
<text text-anchor="middle" x="5433" y="-167.8" font-family="Times,serif" font-size="14.00">{ provide: &#39;CsModule&#39;, useFactory: provideCsModule }</text>
</g>
<!-- { provide: &#39;CsModule&#39;, useFactory: provideCsModule }&#45;&gt;UciModule -->
<g id="edge44" class="edge">
<title>{ provide: &#39;CsModule&#39;, useFactory: provideCsModule }&#45;&gt;UciModule</title>
<path fill="none" stroke="black" d="M5433,-190.11C5433,-209.34 5433,-237 5433,-237 5433,-237 5882.93,-237 5882.93,-237"/>
<polygon fill="black" stroke="black" points="5882.93,-240.5 5892.93,-237 5882.93,-233.5 5882.93,-240.5"/>
</g>
</g>
</svg>
